<?xml version="1.0" encoding="utf-8"?>
<!-- Generator: Adobe Illustrator 16.0.0, SVG Export Plug-In . SVG Version: 6.00 Build 0)  -->
<!DOCTYPE svg PUBLIC "-//W3C//DTD SVG 1.1//EN" "http://www.w3.org/Graphics/SVG/1.1/DTD/svg11.dtd">
<svg version="1.1" id="Layer_1" xmlns="http://www.w3.org/2000/svg" xmlns:xlink="http://www.w3.org/1999/xlink" x="0px" y="0px"
	 width="36px" height="36px" viewBox="0 0 36 36" enable-background="new 0 0 36 36" xml:space="preserve">
<g>
	<g>
		<g>
			<path fill="#FFFFFF" d="M29.021,7.45c-2.701-0.085-4.559,2.279-4.643,4.727c0.084,1.772,0.844,3.038,2.025,3.797
				c-1.014,1.604-2.195,3.208-3.209,4.811c-0.674-0.253-1.266-0.508-1.855-0.508c-0.93,0-1.771,0.255-2.363,0.761
				c-1.266-1.35-2.365-2.617-3.629-4.051c0.254-0.338,0.338-0.845,0.338-1.351c0.084-1.772-1.518-3.208-3.293-3.292
				c-1.771-0.168-3.205,1.519-3.289,3.292c0,0.506,0.168,1.012,0.42,1.351c-1.014,1.182-2.023,2.278-3.039,3.46
				c-0.422-0.254-1.012-0.506-1.688-0.506c-1.52-0.085-2.699,1.435-2.783,2.784c-0.172,1.521,1.35,2.701,2.783,2.785
				c1.52,0.085,2.619-1.35,2.787-2.785c0-0.505-0.084-1.012-0.424-1.35c0.76-0.929,1.52-1.772,2.279-2.701
				c0.252-0.253,0.42-0.506,0.676-0.76c0.506,0.506,1.266,0.929,2.109,0.929c0.928,0,1.688-0.253,2.195-0.929
				c1.182,1.267,2.447,2.617,3.543,3.883c-0.506,0.76-0.842,1.688-0.842,2.532c0.168,2.278,1.771,4.052,4.219,4.22
				c2.279,0.084,4.051-2.025,4.135-4.22c0.086-1.098-0.506-2.279-1.266-2.954c1.098-1.604,2.195-3.292,3.293-4.895
				c2.699,1.013,6.244-0.507,6.498-4.304C33.916,9.645,31.553,7.787,29.021,7.45L29.021,7.45z"/>
		</g>
	</g>
</g>
</svg>
