<?xml version="1.0" encoding="utf-8"?>
<!-- Generator: Adobe Illustrator 16.0.0, SVG Export Plug-In . SVG Version: 6.00 Build 0)  -->
<!DOCTYPE svg PUBLIC "-//W3C//DTD SVG 1.1//EN" "http://www.w3.org/Graphics/SVG/1.1/DTD/svg11.dtd">
<svg version="1.1" id="Layer_1" xmlns="http://www.w3.org/2000/svg" xmlns:xlink="http://www.w3.org/1999/xlink" x="0px" y="0px"
	 width="36px" height="36px" viewBox="0 0 36 36" enable-background="new 0 0 36 36" xml:space="preserve">
<g>
	<g>
		<g>
			<path fill="#8D9B9E" d="M29.365,7.121c-2.786-0.089-4.7,2.349-4.787,4.873c0.087,1.827,0.871,3.133,2.089,3.916
				c-1.045,1.654-2.263,3.308-3.309,4.962c-0.695-0.262-1.304-0.523-1.913-0.523c-0.957,0-1.828,0.262-2.438,0.785
				c-1.306-1.393-2.437-2.698-3.742-4.179c0.261-0.349,0.348-0.87,0.348-1.393c0.088-1.828-1.566-3.308-3.394-3.394
				c-1.828-0.175-3.308,1.565-3.395,3.394c0,0.522,0.174,1.044,0.435,1.393c-1.044,1.218-2.088,2.351-3.133,3.568
				c-0.436-0.261-1.045-0.521-1.741-0.521c-1.567-0.088-2.785,1.479-2.873,2.871c-0.173,1.566,1.393,2.786,2.873,2.872
				c1.566,0.088,2.699-1.392,2.872-2.872c0-0.521-0.088-1.044-0.436-1.392c0.783-0.96,1.567-1.829,2.352-2.785
				c0.26-0.261,0.435-0.523,0.694-0.784c0.523,0.523,1.308,0.958,2.178,0.958c0.958,0,1.741-0.262,2.264-0.959
				c1.217,1.307,2.522,2.699,3.653,4.005c-0.521,0.782-0.869,1.741-0.869,2.611c0.173,2.35,1.827,4.179,4.352,4.352
				c2.348,0.087,4.177-2.089,4.264-4.352c0.088-1.133-0.522-2.35-1.305-3.046c1.131-1.653,2.263-3.395,3.395-5.049
				c2.784,1.044,6.439-0.522,6.701-4.438C34.413,9.384,31.977,7.468,29.365,7.121L29.365,7.121z"/>
		</g>
	</g>
</g>
</svg>
