<?xml version="1.0" encoding="utf-8"?>
<!-- Generator: Adobe Illustrator 16.0.0, SVG Export Plug-In . SVG Version: 6.00 Build 0)  -->
<!DOCTYPE svg PUBLIC "-//W3C//DTD SVG 1.1//EN" "http://www.w3.org/Graphics/SVG/1.1/DTD/svg11.dtd">
<svg version="1.1" id="Layer_1" xmlns="http://www.w3.org/2000/svg" xmlns:xlink="http://www.w3.org/1999/xlink" x="0px" y="0px"
	 width="24px" height="32.25px" viewBox="43.8 32.25 24 32.25" enable-background="new 43.8 32.25 24 32.25" xml:space="preserve">
<g>
	<g>
		<g>
			<path fill="#83898C" d="M48.6,43.5c4.101,0,8.101,0,12.2,0c0,0.1,0,0.1,0,0.3c0,3.9,0,8,0,11.8c0,1.2-0.9,2.101-2.1,2.101
				c-2.7,0-5.4,0-7.9,0c-1.2,0-2.1-0.9-2.1-2.101c0-3.899,0-7.899,0-11.8C48.6,43.6,48.6,43.6,48.6,43.5z"/>
			<path fill="#83898C" d="M47.7,42.5c0-0.6,0-1.3,0-1.9c0.1,0,0.1,0,0.3,0c1,0,2.1,0,3,0c0.1,0,0.3,0,0.3-0.2
				c0.3-0.2,0.5-0.5,0.8-0.8c0.2-0.2,0.2-0.2,0.3-0.2c1.5,0,3.2,0,4.7,0c0.101,0,0.3,0,0.3,0.2c0.301,0.3,0.5,0.4,0.801,0.8
				c0.199,0.2,0.199,0.2,0.3,0.2c1.1,0,2.1,0,3,0c0.2,0,0.2,0,0.3,0c0,0.8,0,1.3,0,1.9C57.1,42.5,52.3,42.5,47.7,42.5z"/>
		</g>
	</g>
</g>
</svg>
