<?xml version="1.0" encoding="utf-8"?>
<!-- Generator: Adobe Illustrator 16.0.0, SVG Export Plug-In . SVG Version: 6.00 Build 0)  -->
<!DOCTYPE svg PUBLIC "-//W3C//DTD SVG 1.1//EN" "http://www.w3.org/Graphics/SVG/1.1/DTD/svg11.dtd">
<svg version="1.1" id="Layer_1" xmlns="http://www.w3.org/2000/svg" xmlns:xlink="http://www.w3.org/1999/xlink" x="0px" y="0px"
	 width="22.3px" height="16.4px" viewBox="0 0 22.3 16.4" enable-background="new 0 0 22.3 16.4" xml:space="preserve">
<g>
	<g>
		<path fill-rule="evenodd" clip-rule="evenodd" d="M19.9,11.5c0-0.3,0-0.6,0-0.9c0-1.4,0-2.8,0-4.2c-0.1-1.5-1.3-2.7-2.8-2.7
			c-3.2,0-6.5,0-9.7,0c-1.1,0-2.2,0-3.4,0c-0.1,0-0.1,0-0.2,0c0-0.2,0-0.4,0-0.6c0-0.4,0-0.9,0-1.3c0-1,0.7-1.7,1.7-1.7
			C7.3,0,9.1,0,11,0c3.2,0,6.4,0,9.6,0c1,0,1.7,0.7,1.7,1.7c0,2.7,0,5.4,0,8.1c0,1-0.7,1.7-1.6,1.7C20.4,11.5,20.2,11.5,19.9,11.5z"
			/>
		<path fill-rule="evenodd" clip-rule="evenodd" d="M9.3,16.4c-2.5,0-5.1,0-7.6,0c-1,0-1.7-0.7-1.7-1.7C0,12,0,9.3,0,6.6
			c0-1,0.7-1.7,1.7-1.7c4.5,0,8.9,0,13.4,0c0.6,0,1.2,0,1.8,0c1,0,1.7,0.7,1.7,1.7c0,2.7,0,5.4,0,8.1c0,0.8-0.5,1.4-1.2,1.6
			c-0.2,0-0.4,0.1-0.6,0.1C14.3,16.4,11.8,16.4,9.3,16.4C9.3,16.4,9.3,16.4,9.3,16.4z M3.4,15c4,0,7.9,0,11.9,0
			c-0.1-0.6,0.1-1,0.4-1.4c0.4-0.4,0.9-0.5,1.4-0.5c0-1.7,0-3.3,0-4.9c-0.6,0.1-1-0.1-1.4-0.5c-0.4-0.4-0.5-0.9-0.5-1.4
			c-4,0-8,0-11.9,0c0.1,0.6,0,1.1-0.4,1.5C2.5,8.3,2,8.4,1.4,8.3c0,1.7,0,3.3,0,5C2.5,13.1,3.4,13.9,3.4,15z"/>
		<path fill-rule="evenodd" clip-rule="evenodd" d="M12.7,10.7c0,1.9-1.6,3.5-3.5,3.5c-2,0-3.5-1.6-3.5-3.6c0-1.9,1.6-3.5,3.5-3.5
			C11.1,7.2,12.7,8.8,12.7,10.7z M9.1,13.1c0.3,0,0.3,0,0.3-0.3c0-0.2,0.1-0.3,0.3-0.4c0.5-0.2,0.8-0.7,0.7-1.2
			c-0.1-0.4-0.3-0.6-0.6-0.8c-0.2-0.1-0.5-0.2-0.7-0.3C8.9,10,8.7,9.9,8.8,9.7C8.9,9.6,9,9.5,9.2,9.5c0.2,0,0.4,0,0.5,0
			c0.4,0.1,0.4,0.1,0.5-0.3c0,0,0,0,0,0c0-0.1,0-0.2-0.1-0.2C10,8.9,9.8,8.9,9.7,8.8c-0.1,0-0.2-0.1-0.2-0.2c0-0.4-0.1-0.3-0.4-0.4
			c-0.2,0-0.2,0.1-0.2,0.2c0,0.3-0.1,0.4-0.3,0.5c-0.8,0.3-0.8,1.3-0.2,1.7c0.2,0.1,0.4,0.2,0.5,0.3c0.2,0.1,0.3,0.1,0.5,0.2
			c0.2,0.2,0.2,0.5-0.1,0.6c-0.1,0-0.2,0.1-0.3,0.1c-0.3,0-0.5-0.1-0.8-0.2c-0.1,0-0.2,0-0.2,0.1c-0.2,0.5-0.1,0.6,0.4,0.7
			c0.1,0,0.1,0,0.2,0c0.2,0,0.2,0.1,0.2,0.3C8.8,13.1,8.8,13.1,9.1,13.1z"/>
		<path fill-rule="evenodd" clip-rule="evenodd" d="M13.3,10.8c0-0.5,0.4-1,1-1c0.5,0,1,0.5,1,1c0,0.5-0.5,1-1,0.9
			C13.7,11.8,13.3,11.4,13.3,10.8z"/>
		<path fill-rule="evenodd" clip-rule="evenodd" d="M5,10.9c0,0.5-0.4,1-1,1c-0.5,0-1-0.4-1-1c0-0.5,0.4-1,1-1
			C4.6,9.9,5,10.3,5,10.9z"/>
	</g>
</g>
</svg>
