<?xml version="1.0" encoding="utf-8"?>
<!-- Generator: Adobe Illustrator 16.0.0, SVG Export Plug-In . SVG Version: 6.00 Build 0)  -->
<!DOCTYPE svg PUBLIC "-//W3C//DTD SVG 1.1//EN" "http://www.w3.org/Graphics/SVG/1.1/DTD/svg11.dtd">
<svg version="1.1" id="Layer_1" xmlns="http://www.w3.org/2000/svg" xmlns:xlink="http://www.w3.org/1999/xlink" x="0px" y="0px"
	 width="33.4px" height="27.25px" viewBox="37.8 35.5 33.4 27.25" enable-background="new 37.8 35.5 33.4 27.25"
	 xml:space="preserve">
<g>
	<g>
		<g>
			<path fill="#83898C" d="M63.4,44c-0.1,0.3-0.3,0.6-0.6,0.9c-0.5,0.5-0.9,0.9-1.4,1.3c-1.3-1.3-2.5-2.7-3.899-3.9l0,0
				c0.399-0.5,0.899-0.9,1.5-1.5c0.399-0.5,1.2-0.5,1.6,0c0.8,0.8,1.5,1.5,2.2,2.2c0.2,0.1,0.3,0.4,0.3,0.6
				C63.4,43.9,63.4,44,63.4,44z"/>
			<path fill="#83898C" d="M45.4,58.3c0.5-1.6,0.801-3.3,1.2-4.899c0,0,0,0,0-0.101c1.3,1.3,2.5,2.5,3.9,3.9
				c-0.3,0.1-0.8,0.1-1.2,0.3c-1.2,0.3-2.6,0.6-3.8,0.9C45.6,58.3,45.6,58.3,45.4,58.3C45.6,58.3,45.6,58.3,45.4,58.3z"/>
			<path fill="#83898C" d="M56.1,43.9c1.3,1.3,2.5,2.5,3.9,3.9c-2.5,2.601-5.2,5.2-7.8,7.8C50.9,54.2,49.7,53,48.3,51.7
				C50.8,49.1,53.5,46.4,56.1,43.9z"/>
		</g>
	</g>
</g>
</svg>
