<?xml version="1.0" encoding="utf-8"?>
<!-- Generator: Adobe Illustrator 16.0.0, SVG Export Plug-In . SVG Version: 6.00 Build 0)  -->
<!DOCTYPE svg PUBLIC "-//W3C//DTD SVG 1.1//EN" "http://www.w3.org/Graphics/SVG/1.1/DTD/svg11.dtd">
<svg version="1.1" id="Layer_1" xmlns="http://www.w3.org/2000/svg" xmlns:xlink="http://www.w3.org/1999/xlink" x="0px" y="0px"
	 width="108.6px" height="94px" viewBox="0 0 108.6 94" enable-background="new 0 0 108.6 94" xml:space="preserve">
<path fill="#FFFFFF" d="M54.6,51.3c5,0,9-5,9-11s-4-11-9-11c-2.4,0-4.8,1.2-6.4,3.3s-2.6,4.8-2.6,7.7C45.6,46.4,49.7,51.3,54.6,51.3
	L54.6,51.3z M54.6,31.8c3.6,0,6.6,3.9,6.6,8.6s-3,8.5-6.6,8.5C51,48.9,48,45,48,40.4S51,31.8,54.6,31.8L54.6,31.8z M62.1,50.1
	c-0.6,0-1.2,0.6-1.2,1.2c0,0.6,0.6,1.2,1.2,1.2c4.1,0,7.5,3.3,7.5,7.5c0,0.4-0.4,0.9-0.9,0.9H40.5c-0.6,0-0.9-0.4-0.9-0.9
	c0-4.1,3.3-7.5,7.5-7.5c0.6,0,1.2-0.6,1.2-1.2c0-0.6-0.6-1.2-1.2-1.2c-5.4,0-9.9,4.4-9.9,9.9c0,1.8,1.5,3.3,3.3,3.3h28
	c1.8,0,3.3-1.5,3.3-3.3C72,54.6,67.5,50.1,62.1,50.1L62.1,50.1z"/>
</svg>
