<?xml version="1.0" encoding="utf-8"?>
<!-- Generator: Adobe Illustrator 16.0.0, SVG Export Plug-In . SVG Version: 6.00 Build 0)  -->
<!DOCTYPE svg PUBLIC "-//W3C//DTD SVG 1.1//EN" "http://www.w3.org/Graphics/SVG/1.1/DTD/svg11.dtd">
<svg version="1.1" id="Layer_1" xmlns="http://www.w3.org/2000/svg" xmlns:xlink="http://www.w3.org/1999/xlink" x="0px" y="0px"
	 width="45px" height="44px" viewBox="31.8 23.5 45 44" enable-background="new 31.8 23.5 45 44" xml:space="preserve">
<path fill="#8D9B9E" d="M54.6,51.3c5,0,9-5,9-11s-4-11-9-11c-2.399,0-4.8,1.2-6.399,3.3C46.6,34.7,45.6,37.4,45.6,40.3
	C45.6,46.4,49.7,51.3,54.6,51.3L54.6,51.3z M54.6,31.8c3.601,0,6.601,3.9,6.601,8.6c0,4.7-3,8.5-6.601,8.5C51,48.9,48,45,48,40.4
	S51,31.8,54.6,31.8L54.6,31.8z M62.1,50.1c-0.6,0-1.2,0.601-1.2,1.2c0,0.601,0.601,1.2,1.2,1.2c4.101,0,7.5,3.3,7.5,7.5
	c0,0.4-0.399,0.9-0.899,0.9H40.5c-0.601,0-0.9-0.4-0.9-0.9c0-4.1,3.3-7.5,7.5-7.5c0.601,0,1.2-0.6,1.2-1.2c0-0.6-0.6-1.2-1.2-1.2
	C41.7,50.1,37.2,54.5,37.2,60c0,1.8,1.5,3.3,3.3,3.3h28c1.8,0,3.3-1.5,3.3-3.3C72,54.6,67.5,50.1,62.1,50.1L62.1,50.1z"/>
</svg>
