<?xml version="1.0" encoding="utf-8"?>
<!-- Generator: Adobe Illustrator 16.0.0, SVG Export Plug-In . SVG Version: 6.00 Build 0)  -->
<!DOCTYPE svg PUBLIC "-//W3C//DTD SVG 1.1//EN" "http://www.w3.org/Graphics/SVG/1.1/DTD/svg11.dtd">
<svg version="1.1" id="Layer_1" xmlns="http://www.w3.org/2000/svg" xmlns:xlink="http://www.w3.org/1999/xlink" x="0px" y="0px"
	 width="37.4px" height="33.25px" viewBox="37.4 33.25 37.4 33.25" enable-background="new 37.4 33.25 37.4 33.25"
	 xml:space="preserve">
<g>
	<g>
		<g>
			<line fill="none" x1="49.3" y1="43.4" x2="61.3" y2="43.4"/>
			<rect x="49.3" y="41.9" fill="#666666" width="12" height="3"/>
		</g>
	</g>
	<g>
		<g>
			<line fill="none" x1="49.3" y1="49.4" x2="61.3" y2="49.4"/>
			<rect x="49.3" y="47.9" fill="#666666" width="12" height="3"/>
		</g>
	</g>
	<g>
		<g>
			<line fill="none" x1="49.3" y1="55.4" x2="61.3" y2="55.4"/>
			<rect x="49.3" y="53.9" fill="#666666" width="12" height="3"/>
		</g>
	</g>
	<g>
		<g>
			<path fill="#666666" d="M64.3,40.4v18h-18v-18H64.3 M65.5,37.4H44.8c-0.6,0-1.5,1.2-1.5,1.8v20.7c0,0.6,0.8,1.3,1.5,1.3h20.7
				c0.6,0,1.8-0.8,1.8-1.3V39.2C67.3,38.5,66.2,37.4,65.5,37.4L65.5,37.4z"/>
		</g>
	</g>
</g>
</svg>
