<?xml version="1.0" encoding="utf-8"?>
<!-- Generator: Adobe Illustrator 16.0.0, SVG Export Plug-In . SVG Version: 6.00 Build 0)  -->
<!DOCTYPE svg PUBLIC "-//W3C//DTD SVG 1.1//EN" "http://www.w3.org/Graphics/SVG/1.1/DTD/svg11.dtd">
<svg version="1.1" id="Layer_1" xmlns="http://www.w3.org/2000/svg" xmlns:xlink="http://www.w3.org/1999/xlink" x="0px" y="0px"
	 width="41px" height="32.75px" viewBox="36.8 32.75 41 32.75" enable-background="new 36.8 32.75 41 32.75" xml:space="preserve">
<g>
	<g>
		<path fill="#979797" d="M59.5,55.8c-1.3,0.9-3,1.5-4.601,1.4c-0.199,0-0.5,0-0.6,0s-0.1,0-0.3,0c-0.101,0-0.3,0-0.5-0.101
			c-0.101,0-0.101,0-0.3,0C53.1,57.1,52.9,56.9,52.7,56.9c-0.101,0-0.101,0-0.101,0c-0.2,0-0.3-0.101-0.6-0.101H51.9
			c-0.199-0.2-0.5-0.2-0.6-0.3l0,0c-0.6-0.3-1.2-0.8-1.8-1.4l0,0C49.4,55,49.2,54.8,49,54.6c0,0,0-0.1-0.101-0.1
			c-1.1-1.4-1.8-3-1.8-5H49.2L45.9,44.4l-3.3,4.9H44.7c0,2.2,0.8,4.2,1.8,5.9l0,0c0.2,0.1,0.3,0.3,0.5,0.399l0.1,0.101
			c0.101,0.3,0.4,0.5,0.601,0.6l0,0c0.8,0.8,1.5,1.4,2.399,1.8l0,0c0.3,0.101,0.4,0.301,0.8,0.301c0,0,0.101,0,0.101,0.1
			c0.2,0.1,0.5,0.1,0.6,0.3c0.101,0,0.101,0.101,0.3,0.101C52,58.9,52.3,59.1,52.5,59.1s0.3,0,0.5,0.101h0.1
			c0.101,0,0.4,0,0.601,0.1h0.1c0.3,0,0.8,0,1.1,0c2.101,0,4.2-0.6,6-2C61.5,56.9,61.7,56.1,61.2,55.5
			C60.9,55.6,59.9,55.5,59.5,55.8z"/>
		<path fill="#979797" d="M65.4,49.3c0-2.2-0.8-4.2-1.8-5.8c0,0,0,0,0-0.2c-0.1-0.1-0.3-0.4-0.399-0.6l0,0
			c-1.101-1.3-2.4-2.2-3.9-2.8h-0.1c-0.301-0.2-0.4-0.2-0.801-0.3c-0.1,0-0.1,0-0.3-0.1c-0.1,0-0.399-0.2-0.6-0.2s-0.3,0-0.3-0.2H57
			c-0.101,0-0.3,0-0.5,0c-0.101,0-0.3,0-0.3,0c-0.301,0-0.601,0-0.801,0h-0.1l0,0c-2.1,0-4.2,0.6-5.9,1.8c-0.6,0.4-0.8,1.2-0.3,1.8
			c0.5,0.6,1.2,0.8,1.8,0.3c1.4-0.9,3-1.5,4.7-1.3c0.3,0,0.4,0,0.8,0H56.5c0.2,0,0.3,0,0.6,0.1c0.101,0,0.101,0,0.3,0
			C57.5,41.8,57.7,42,58,42h0.2c0.1,0,0.5,0.2,0.6,0.2l0,0c1.2,0.4,2.2,1.2,3,2.2l0,0c1.1,1.3,1.8,3.1,1.8,4.9h-2.1l3.3,5l3.3-5
			H65.4z"/>
	</g>
</g>
</svg>
