<?xml version="1.0" encoding="utf-8"?>
<!-- Generator: Adobe Illustrator 16.0.0, SVG Export Plug-In . SVG Version: 6.00 Build 0)  -->
<!DOCTYPE svg PUBLIC "-//W3C//DTD SVG 1.1//EN" "http://www.w3.org/Graphics/SVG/1.1/DTD/svg11.dtd">
<svg version="1.1" id="Layer_1" xmlns="http://www.w3.org/2000/svg" xmlns:xlink="http://www.w3.org/1999/xlink" x="0px" y="0px"
	 width="47px" height="49px" viewBox="35.8 20.5 47 49" enable-background="new 35.8 20.5 47 49" xml:space="preserve">
<g>
	<g>
		<g>
			<line fill="none" x1="46.4" y1="45.3" x2="58.4" y2="45.3"/>
			<rect x="46.4" y="43.8" fill="#8D9B9E" width="12" height="3"/>
		</g>
		<g>
			<line fill="none" x1="46.4" y1="51.3" x2="58.4" y2="51.3"/>
			<rect x="46.4" y="49.8" fill="#8D9B9E" width="12" height="3"/>
		</g>
		<g>
			<line fill="none" x1="46.4" y1="57.3" x2="58.4" y2="57.3"/>
			<rect x="46.4" y="55.8" fill="#8D9B9E" width="12" height="3"/>
		</g>
		<g>
			<path fill="#8D9B9E" d="M61.4,42.3v18h-18v-18H61.4 M62.9,39.3H42.2c-0.601,0-1.801,1.2-1.801,1.8v20.7
				c0,0.601,1.101,1.3,1.801,1.3H62.9c0.601,0,1.5-0.8,1.5-1.3V41.1c0-0.6-0.899-1.8-1.6-1.8H62.9z"/>
		</g>
		<g>
			<g>
				<g>
					<path fill="#8D9B9E" d="M60.7,35.3C59.9,35.6,59.1,35,58.9,34.2L57.7,29.9c-0.301-0.8,0.3-1.7,1.1-1.8s1.6,0.3,1.8,1.1l1.2,4.3
						C61.9,34.2,61.4,35.1,60.7,35.3z"/>
				</g>
			</g>
			<g>
				<g>
					<path fill="#8D9B9E" d="M66.8,35.9c-0.3,0.2-0.8,0-1.2-0.2c-0.8-0.4-1-1.3-0.6-2.1l2.1-3.9c0.5-0.8,1.4-1.1,2.101-0.6
						c0.8,0.4,1,1.3,0.6,2.1l-2.1,3.9C67.4,35.4,67.1,35.7,66.8,35.9z"/>
				</g>
			</g>
			<g>
				<g>
					<path fill="#8D9B9E" d="M74.3,39.2L70,40.4c-0.8,0.3-1.7-0.3-1.8-1.1c-0.301-0.8,0.3-1.7,1.1-1.8l4.3-1.2
						c0.8-0.3,1.7,0.3,1.8,1.1C75.5,38.1,75.1,39,74.3,39.2z"/>
				</g>
			</g>
			<g>
				<g>
					<path fill="#8D9B9E" d="M73.6,48.2c-0.3,0.2-0.8,0-1.2-0.101L68.5,46c-0.8-0.4-1.101-1.3-0.601-2.1c0.5-0.8,1.4-1,2.101-0.6
						l3.899,2.1C74.7,45.9,75,46.7,74.5,47.5C74.3,47.9,74,48,73.6,48.2z"/>
				</g>
			</g>
		</g>
	</g>
</g>
</svg>
