<?xml version="1.0" encoding="utf-8"?>
<!-- Generator: Adobe Illustrator 16.0.0, SVG Export Plug-In . SVG Version: 6.00 Build 0)  -->
<!DOCTYPE svg PUBLIC "-//W3C//DTD SVG 1.1//EN" "http://www.w3.org/Graphics/SVG/1.1/DTD/svg11.dtd">
<svg version="1.1" id="Layer_1" xmlns="http://www.w3.org/2000/svg" xmlns:xlink="http://www.w3.org/1999/xlink" x="0px" y="0px"
	 width="55px" height="39px" viewBox="26.8 27.5 55 39" enable-background="new 26.8 27.5 55 39" xml:space="preserve">
<g>
	<g>
		<g>
			<path fill="#8D9B9E" d="M72.1,40.3c-2.399-2.4-5.6-3.8-9-3.8c-3.1,0-6,1-8.2,3.1C52.7,37.7,49.7,36.5,46.7,36.5
				c-3.301,0-6.601,1.3-9,3.8C37.6,40.4,37.4,40.7,37.4,40.9v18.5c0,0.3,0.2,0.8,0.601,0.899c0.3,0.101,0.8,0,1-0.1
				c2.1-2.101,4.8-3.2,7.6-3.2s5.601,1.2,7.601,3.2l0,0l0,0l0,0l0,0l0,0l0,0l0,0l0,0l0,0l0,0l0,0l0,0l0,0l0,0H54.4l0,0l0,0l0,0l0,0
				l0,0l0,0l0,0l0,0l0,0l0,0l0,0l0,0l0,0l0,0C56.5,58.1,59.2,57,62,57c2.899,0,5.6,1.2,7.7,3.2c0.1,0.1,0.399,0.3,0.6,0.3
				s0.3,0,0.3,0c0.3-0.1,0.601-0.5,0.601-0.9V40.9C72.5,40.6,72.3,40.4,72.1,40.3L72.1,40.3z M39.3,57.4v-16c2-1.8,4.7-2.8,7.4-2.8
				c2.699,0,5.399,1.1,7.399,2.8v16C52,55.9,49.4,55,46.7,55C44,55,41.4,55.8,39.3,57.4L39.3,57.4z M70.6,57.4
				c-2-1.5-4.6-2.4-7.3-2.4s-5.2,0.9-7.3,2.4v-16c1.899-1.8,4.6-2.8,7.3-2.8s5.4,1.1,7.3,2.8V57.4z"/>
		</g>
	</g>
</g>
</svg>
