<?xml version="1.0" encoding="utf-8"?>
<!-- Generator: Adobe Illustrator 16.0.0, SVG Export Plug-In . SVG Version: 6.00 Build 0)  -->
<!DOCTYPE svg PUBLIC "-//W3C//DTD SVG 1.1//EN" "http://www.w3.org/Graphics/SVG/1.1/DTD/svg11.dtd">
<svg version="1.1" id="Layer_1" xmlns="http://www.w3.org/2000/svg" xmlns:xlink="http://www.w3.org/1999/xlink" x="0px" y="0px"
	 width="108.6px" height="94px" viewBox="0 0 108.6 94" enable-background="new 0 0 108.6 94" xml:space="preserve">
<g>
	<g>
		<g>
			<path fill="#FFFFFF" d="M72.1,40.3c-2.4-2.4-5.6-3.8-9-3.8c-3.1,0-6,1-8.2,3.1c-2.2-1.9-5.2-3.1-8.2-3.1c-3.3,0-6.6,1.3-9,3.8
				c-0.1,0.1-0.3,0.4-0.3,0.6v18.5c0,0.3,0.2,0.8,0.6,0.9c0.3,0.1,0.8,0,1-0.1c2.1-2.1,4.8-3.2,7.6-3.2s5.6,1.2,7.6,3.2l0,0l0,0l0,0
				l0,0l0,0l0,0l0,0l0,0l0,0l0,0l0,0l0,0l0,0l0,0h0.2l0,0l0,0l0,0l0,0l0,0l0,0l0,0l0,0l0,0l0,0l0,0l0,0l0,0l0,0
				c2.1-2.1,4.8-3.2,7.6-3.2c2.9,0,5.6,1.2,7.7,3.2c0.1,0.1,0.4,0.3,0.6,0.3c0.2,0,0.3,0,0.3,0c0.3-0.1,0.6-0.5,0.6-0.9V40.9
				C72.5,40.6,72.3,40.4,72.1,40.3L72.1,40.3z M39.3,57.4v-16c2-1.8,4.7-2.8,7.4-2.8s5.4,1.1,7.4,2.8v16c-2.1-1.5-4.7-2.4-7.4-2.4
				S41.4,55.8,39.3,57.4L39.3,57.4z M70.6,57.4C68.6,55.9,66,55,63.3,55s-5.2,0.9-7.3,2.4v-16c1.9-1.8,4.6-2.8,7.3-2.8
				s5.4,1.1,7.3,2.8V57.4z"/>
		</g>
	</g>
</g>
</svg>
