<?xml version="1.0" encoding="utf-8"?>
<!-- Generator: Adobe Illustrator 16.0.0, SVG Export Plug-In . SVG Version: 6.00 Build 0)  -->
<!DOCTYPE svg PUBLIC "-//W3C//DTD SVG 1.1//EN" "http://www.w3.org/Graphics/SVG/1.1/DTD/svg11.dtd">
<svg version="1.1" id="Layer_1" xmlns="http://www.w3.org/2000/svg" xmlns:xlink="http://www.w3.org/1999/xlink" x="0px" y="0px"
	 width="108.6px" height="94px" viewBox="0 0 108.6 94" enable-background="new 0 0 108.6 94" xml:space="preserve">
<g>
	<g>
		<path fill="#FFFFFF" d="M60.6,59.6l-18.3-0.1l0.1-18.3l13.1,0.1v-2.5l-13.1-0.2c-1.5,0-2.7,1.2-2.7,2.6l-0.2,18.3
			c0,1.5,1.2,2.5,2.5,2.7l18.3,0.1c1.5,0,2.6-1.2,2.7-2.5l0.2-10.5h-2.6L60.6,59.6z"/>
	</g>
</g>
<circle fill="#FFFFFF" cx="61.9" cy="41.2" r="9"/>
<g>
	<g>
		<path fill="#7ABEF4" d="M60.6,42.4h-3.3c-0.8,0-1.2-0.6-1.2-1.2c0-0.8,0.6-1.2,1.2-1.2h3.3v-3.2c0-0.8,0.6-1.3,1.3-1.3
			s1.4,0.6,1.4,1.3V40h3.3c0.8,0,1.2,0.6,1.2,1.2c0,0.8-0.6,1.2-1.2,1.2h-3.3v3.2c0,0.8-0.6,1.3-1.4,1.3s-1.3-0.6-1.3-1.3V42.4z"/>
	</g>
</g>
</svg>
