<?xml version="1.0" encoding="utf-8"?>
<!-- Generator: Adobe Illustrator 16.0.0, SVG Export Plug-In . SVG Version: 6.00 Build 0)  -->
<!DOCTYPE svg PUBLIC "-//W3C//DTD SVG 1.1//EN" "http://www.w3.org/Graphics/SVG/1.1/DTD/svg11.dtd">
<svg version="1.1" id="Layer_1" xmlns="http://www.w3.org/2000/svg" xmlns:xlink="http://www.w3.org/1999/xlink" x="0px" y="0px"
	 width="47px" height="41px" viewBox="31.8 27.5 47 41" enable-background="new 31.8 27.5 47 41" xml:space="preserve">
<g>
	<path fill="#8D9B9E" d="M61.3,60.2L43,60.1l0.2-18.3L56.3,42v-2.5l-13.1-0.2c-1.5,0-2.7,1.2-2.7,2.5l-0.2,18.3
		c0,1.5,1.2,2.601,2.6,2.7L61.2,63c1.5,0,2.6-1.2,2.699-2.5L64.1,50h-2.5L61.3,60.2z"/>
</g>
<circle fill="#8D9B9E" cx="62.6" cy="41.8" r="9"/>
<g>
	<path fill="#CED5E4" d="M61.3,43H58c-0.8,0-1.2-0.6-1.2-1.2c0-0.8,0.6-1.2,1.2-1.2h3.3v-3.2c0-0.8,0.6-1.3,1.4-1.3
		c0.8,0,1.3,0.6,1.3,1.3v3.2h3.2c0.8,0,1.199,0.6,1.199,1.2c0,0.8-0.6,1.2-1.199,1.2H63.9v3.2c0,0.8-0.6,1.3-1.3,1.3
		s-1.3-0.6-1.3-1.3V43L61.3,43z"/>
</g>
</svg>
