<?xml version="1.0" encoding="utf-8"?>
<!-- Generator: Adobe Illustrator 16.0.0, SVG Export Plug-In . SVG Version: 6.00 Build 0)  -->
<!DOCTYPE svg PUBLIC "-//W3C//DTD SVG 1.1//EN" "http://www.w3.org/Graphics/SVG/1.1/DTD/svg11.dtd">
<svg version="1.1" id="Layer_1" xmlns="http://www.w3.org/2000/svg" xmlns:xlink="http://www.w3.org/1999/xlink" x="0px" y="0px"
	 width="108.6px" height="94px" viewBox="0 0 108.6 94" enable-background="new 0 0 108.6 94" xml:space="preserve">
<g>
	<path fill="#FFFFFF" d="M54.8,65.1c6.8,0,12.3-6.8,12.3-15s-5.6-15-12.3-15c-3.3,0-6.6,1.6-8.9,4.5c-2.2,2.8-3.5,6.6-3.5,10.5
		C42.5,58.3,48.1,65.1,54.8,65.1L54.8,65.1z M54.8,38.4c4.9,0,9,5.2,9,11.7c0,6.4-4.1,11.7-9,11.7s-9-5.2-9-11.7
		C45.8,43.6,49.9,38.4,54.8,38.4L54.8,38.4z"/>
</g>
<g>
	<g>
		<path fill="#FFFFFF" d="M37.1,48.1L37.1,48.1c0-5.1,1.8-9.8,4.9-13.2c3.3-3.8,7.9-5.7,12.8-5.7c9.8,0,17.7,8.4,17.7,18.9v0.1h-1.6
			v-0.1c0-9.6-7.2-17.4-16.1-17.4c-4.4,0-8.4,1.8-11.4,5.2c-3,3.3-4.7,7.7-4.7,12.2H37.1z"/>
	</g>
	<g>
		<path fill="#FFFFFF" d="M71.3,51"/>
	</g>
	<g>
		<path fill="#FFFFFF" d="M72.1,57.1c-1.6,0-3-1.2-3-2.5v-7.4c0-1.5,1.4-2.5,3-2.5s3,1.2,3,2.5v7.4C75.1,55.9,73.7,57.1,72.1,57.1z"
			/>
	</g>
	<g>
		<path fill="#FFFFFF" d="M37.6,57.1c-1.6,0-3-1.2-3-2.5v-7.4c0-1.5,1.4-2.5,3-2.5s3,1.2,3,2.5v7.4C40.6,55.9,39.2,57.1,37.6,57.1z"
			/>
	</g>
</g>
</svg>
