<?xml version="1.0" encoding="utf-8"?>
<!-- Generator: Adobe Illustrator 16.0.0, SVG Export Plug-In . SVG Version: 6.00 Build 0)  -->
<!DOCTYPE svg PUBLIC "-//W3C//DTD SVG 1.1//EN" "http://www.w3.org/Graphics/SVG/1.1/DTD/svg11.dtd">
<svg version="1.1" id="Layer_1" xmlns="http://www.w3.org/2000/svg" xmlns:xlink="http://www.w3.org/1999/xlink" x="0px" y="0px"
	 width="200px" height="200px" viewBox="0 0 200 200" enable-background="new 0 0 200 200" xml:space="preserve">
<circle fill="#33C6F4" cx="100" cy="100" r="100"/>
<g>
	<g>
		<path fill="#FFFFFF" d="M155.235,55.855c-0.304-0.456-0.821-0.773-1.548-0.773h-14.803c-0.575-3.883-1.396-6.709-1.736-7.777
			c0.377-0.41,0.751-0.809,1.126-1.207c0.599-0.633,0.633-1.631,0-2.264c-0.199-0.2-0.445-0.328-0.715-0.412
			c-0.212-0.104-0.457-0.175-0.739-0.175H63.147c-0.294,0-0.541,0.059-0.739,0.175c-0.27,0.071-0.516,0.212-0.715,0.412
			c-0.635,0.633-0.6,1.631,0,2.264c0.375,0.398,0.75,0.809,1.126,1.207c-0.341,1.068-1.149,3.883-1.736,7.777H46.327
			c-0.657,0-1.138,0.258-1.455,0.645c-0.387,0.365-0.634,0.856-0.598,1.396c0.751,10.052,4.621,19.6,10.979,27.413
			c6.687,8.21,15.977,14.18,26.18,16.902c-0.479,1.76-0.691,4.539,2.171,5.699c1.947,0.799,4.094,1.736,5.513,3.344
			c1.514,1.713,0.962,3.613-0.586,5.09c-0.587,0.562-0.774,1.068-0.587,1.865l3.895,21.922h-3.719c-0.715,0-1.829,0.281-2.463,0.635
			l-6.873,3.766c-0.635,0.352-1.15,1.219-1.15,1.934v4.178c0,0.729,0.587,1.312,1.314,1.312h42.108c0.728,0,1.313-0.584,1.313-1.312
			l-0.012-4.223c0-0.775-0.434-1.49-1.113-1.867c-1.748-0.961-5.149-2.814-6.922-3.787c-0.633-0.354-1.734-0.635-2.462-0.635h-3.696
			c0,0,3.883-21.826,3.896-21.922c0.104-0.586,0.14-1.115-0.271-1.584c-0.423-0.48-0.915-0.855-1.267-1.395
			c-0.505-0.787-0.752-1.701-0.458-2.605c0.61-1.91,2.826-3.084,4.492-3.893c0.599-0.293,1.22-0.562,1.842-0.822
			c2.85-1.16,2.639-3.939,2.169-5.699c10.206-2.734,19.496-8.692,26.182-16.902c6.356-7.813,10.228-17.361,10.979-27.413
			C155.741,56.654,155.54,56.207,155.235,55.855L155.235,55.855z M68.051,90.083c-2.053-1.36-3.309-2.334-5.127-3.965
			c-1.102-0.996-2.17-2.028-3.189-3.12c-0.527-0.563-1.045-1.137-1.537-1.724c-0.234-0.27-0.457-0.539-0.68-0.82
			c-0.117-0.142-0.224-0.282-0.329-0.411c-0.012-0.023-0.153-0.2-0.199-0.259c-1.771-2.322-3.344-4.797-4.656-7.401
			c-0.353-0.691-0.681-1.384-0.997-2.088l-0.212-0.493c-0.011-0.022-0.117-0.292-0.141-0.328c-0.117-0.28-0.233-0.562-0.34-0.856
			c-0.54-1.396-1.021-2.803-1.42-4.234c-0.398-1.442-0.75-2.908-1.009-4.386c-0.058-0.329-0.104-0.656-0.164-0.985h11.988
			c-0.563,10.122,1.431,23.952,13.523,34.215C71.651,92.299,69.81,91.255,68.051,90.083L68.051,90.083z M150.731,59.997
			c-0.258,1.478-0.598,2.943-1.009,4.386c-0.398,1.432-0.88,2.853-1.419,4.234c-0.104,0.282-0.224,0.576-0.341,0.856
			c-0.012,0.036-0.129,0.306-0.141,0.328l-0.211,0.493c-0.316,0.704-0.645,1.396-0.997,2.088c-1.313,2.604-2.885,5.079-4.656,7.401
			c-0.048,0.059-0.187,0.247-0.2,0.259c-0.104,0.141-0.222,0.281-0.328,0.411c-0.223,0.281-0.445,0.551-0.68,0.82
			c-0.492,0.587-1.009,1.16-1.537,1.724c-1.008,1.092-2.076,2.124-3.189,3.12c-1.818,1.631-3.086,2.593-5.126,3.965
			c-1.76,1.173-3.602,2.217-5.501,3.155c12.081-10.274,14.074-24.104,13.501-34.227h11.987
			C150.838,59.34,150.778,59.667,150.731,59.997L150.731,59.997z M150.731,59.997"/>
	</g>
</g>
</svg>
