<?xml version="1.0" encoding="utf-8"?>
<!-- Generator: Adobe Illustrator 16.0.0, SVG Export Plug-In . SVG Version: 6.00 Build 0)  -->
<!DOCTYPE svg PUBLIC "-//W3C//DTD SVG 1.1//EN" "http://www.w3.org/Graphics/SVG/1.1/DTD/svg11.dtd">
<svg version="1.1" id="Layer_1" xmlns="http://www.w3.org/2000/svg" xmlns:xlink="http://www.w3.org/1999/xlink" x="0px" y="0px"
	 width="200px" height="200px" viewBox="0 0 200 200" enable-background="new 0 0 200 200" xml:space="preserve">
<circle fill="#33C6F4" cx="100" cy="100" r="100"/>
<g>
	<path fill="#FFFFFF" d="M55.215,106.609C63.74,94.337,68.753,86.434,72.409,80.59c-14.049,1.241-27.515,18.724-27.515,18.724
		l9.272,9.274C54.435,107.904,54.779,107.236,55.215,106.609L55.215,106.609z M55.215,106.609"/>
	<g>
		<path fill="#FFFFFF" d="M91.422,145.844l9.269,9.268c0,0,17.479-13.467,18.724-27.516c-5.841,3.656-13.743,8.668-26.017,17.193
			C92.775,145.219,92.113,145.572,91.422,145.844L91.422,145.844z M91.422,145.844"/>
		<path fill="#FFFFFF" d="M77.329,141.055c-1.592,0.641-3.155,1.322-4.785,1.869c-4.353,1.455-8.838,2.439-13.384,3.066
			c-1.906,0.264-3.828,0.486-5.754,0.633c0.018-0.24,0.035-0.479,0.056-0.715c0.397-4.631,1.102-9.242,2.242-13.752
			c0.547-2.176,1.247-4.291,1.999-6.404c0.467-1.314,1.05-2.572,1.639-3.83l-1.02-1.018c-2.268,1.523-4.24,3.447-5.914,5.627
			c-2.477,3.223-4.333,6.875-5.632,10.723c-1.394,4.135-2.228,8.512-2.358,12.877c-0.017,0.613-0.059,1.24,0.036,1.846
			c0.123,0.787,0.467,1.531,0.985,2.135c0.513,0.596,1.188,1.045,1.937,1.287c0.628,0.201,1.26,0.205,1.912,0.199
			c3.961-0.033,7.984-0.719,11.776-1.848c6.936-2.061,13.937-5.938,18.042-12.062l-0.992-0.992
			C77.854,140.818,77.592,140.938,77.329,141.055L77.329,141.055z M77.329,141.055"/>
	</g>
	<path fill="#FFFFFF" d="M154.479,45.527L154.479,45.527c-0.722-0.723-1.7-1.126-2.72-1.126c-0.023,0-0.049,0-0.075,0
		c-12.378,0.244-42.921,2.56-59.141,18.78c-7.362,7.361-9.755,11.195-15,19.595c-3.779,6.048-8.95,14.331-18.4,27.937
		c-1.062,1.525-0.879,3.598,0.439,4.912l24.796,24.799c0.745,0.742,1.73,1.125,2.721,1.125c0.763,0,1.528-0.225,2.194-0.686
		c13.609-9.457,21.889-14.625,27.933-18.402c8.398-5.242,12.233-7.637,19.598-15.002c16.249-16.249,18.547-46.77,18.781-59.14
		C155.625,47.275,155.219,46.266,154.479,45.527L154.479,45.527z M125.766,92.316c-4.992,4.992-13.085,4.992-18.076,0
		c-4.994-4.992-4.992-13.085,0-18.076c4.991-4.994,13.084-4.994,18.076-0.002C130.758,79.229,130.758,87.324,125.766,92.316
		L125.766,92.316z M125.766,92.316"/>
</g>
</svg>
