<?xml version="1.0" encoding="utf-8"?>
<!-- Generator: Adobe Illustrator 16.0.0, SVG Export Plug-In . SVG Version: 6.00 Build 0)  -->
<!DOCTYPE svg PUBLIC "-//W3C//DTD SVG 1.1//EN" "http://www.w3.org/Graphics/SVG/1.1/DTD/svg11.dtd">
<svg version="1.1" id="Layer_1" xmlns="http://www.w3.org/2000/svg" xmlns:xlink="http://www.w3.org/1999/xlink" x="0px" y="0px"
	 width="200px" height="200px" viewBox="0 0 200 200" enable-background="new 0 0 200 200" xml:space="preserve">
<circle fill="#33C6F4" cx="100" cy="100" r="100"/>
<g>
	<g>
		<rect x="124.242" y="100.511" fill="#FFFFFF" width="11.66" height="22.163"/>
		<rect x="105.318" y="81.588" fill="#FFFFFF" width="11.668" height="41.089"/>
		<rect x="86.404" y="94.828" fill="#FFFFFF" width="11.658" height="27.846"/>
		<rect x="67.475" y="62.672" fill="#FFFFFF" width="11.666" height="60.005"/>
	</g>
	<g>
		<path fill="#FFFFFF" d="M159.719,119.577V67.964c0-11.223-9.246-20.277-20.457-20.277H60.713
			c-11.225,0-20.432,9.055-20.432,20.277v51.613c0,6.86,3.459,12.946,8.674,16.633h-0.664c-4.361,0-7.922,3.532-7.934,7.907
			c-0.012,4.37,3.533,7.895,7.906,7.904l103.125,0.292h0.025c4.363,0,7.922-3.507,7.936-7.868c0.012-4.388-3.533-7.932-7.908-7.942
			h-0.881C156.031,132.866,159.719,126.642,159.719,119.577L159.719,119.577z M50.588,67.964c0-5.508,4.613-9.972,10.125-9.972
			h78.549c5.498,0,9.832,4.464,9.832,9.972v51.613c0,5.499-4.334,9.883-9.832,9.883H60.713c-5.512,0-10.125-4.384-10.125-9.883
			V67.964z M50.588,67.964"/>
	</g>
</g>
</svg>
